<mxfile host="Electron" agent="Mozilla/5.0 (Windows NT 10.0; Win64; x64) AppleWebKit/537.36 (KHTML, like Gecko) draw.io/28.1.2 Chrome/138.0.7204.243 Electron/37.4.0 Safari/537.36" version="28.1.2">
  <diagram name="Project 1" id="fXQbgbXIES2rKZo9UI9D">
    <mxGraphModel dx="643" dy="3758" grid="1" gridSize="10" guides="1" tooltips="1" connect="1" arrows="1" fold="1" page="1" pageScale="1" pageWidth="850" pageHeight="1100" math="0" shadow="0">
      <root>
        <mxCell id="0" />
        <mxCell id="1" parent="0" />
        <mxCell id="0vhuOax-oZiGfvDgA9Jz-33" value="" style="ellipse;shape=cloud;whiteSpace=wrap;html=1;fillColor=none;" parent="1" vertex="1">
          <mxGeometry x="188.62" y="-3205" width="89" height="60" as="geometry" />
        </mxCell>
        <mxCell id="0vhuOax-oZiGfvDgA9Jz-34" value="Internet" style="text;html=1;align=center;verticalAlign=middle;resizable=0;points=[];autosize=1;strokeColor=none;fillColor=none;" parent="1" vertex="1">
          <mxGeometry x="205" y="-3190" width="60" height="30" as="geometry" />
        </mxCell>
        <mxCell id="riEmUQZMA9_rJhYm_ons-21" value="" style="rounded=0;whiteSpace=wrap;html=1;fillColor=none;strokeColor=#000000;dashed=1;opacity=40;" parent="1" vertex="1">
          <mxGeometry x="249.99999999999997" y="-3010.0499999999997" width="130" height="289.5" as="geometry" />
        </mxCell>
        <mxCell id="riEmUQZMA9_rJhYm_ons-22" value="" style="image;aspect=fixed;html=1;points=[];align=center;fontSize=12;image=img/lib/azure2/networking/Virtual_Networks.svg;" parent="1" vertex="1">
          <mxGeometry x="31.00000000000003" y="-2689" width="50" height="29.85" as="geometry" />
        </mxCell>
        <mxCell id="riEmUQZMA9_rJhYm_ons-23" value="" style="image;aspect=fixed;html=1;points=[];align=center;fontSize=12;image=img/lib/azure2/networking/Virtual_Networks_Classic.svg;" parent="1" vertex="1">
          <mxGeometry x="340.55" y="-2766.91" width="30" height="17.91" as="geometry" />
        </mxCell>
        <mxCell id="riEmUQZMA9_rJhYm_ons-24" value="" style="image;aspect=fixed;html=1;points=[];align=center;fontSize=12;image=img/lib/azure2/networking/Spot_VM.svg;" parent="1" vertex="1">
          <mxGeometry x="309.7800000000001" y="-2829.4700000000003" width="20.41" height="18.85" as="geometry" />
        </mxCell>
        <mxCell id="riEmUQZMA9_rJhYm_ons-25" value="" style="rounded=0;whiteSpace=wrap;html=1;fillColor=none;dashed=1;strokeWidth=1;perimeterSpacing=0;" parent="1" vertex="1">
          <mxGeometry x="37.91" y="-3037.9999999999995" width="400" height="360" as="geometry" />
        </mxCell>
        <mxCell id="riEmUQZMA9_rJhYm_ons-26" value="VNet1" style="text;html=1;align=center;verticalAlign=middle;resizable=0;points=[];autosize=1;strokeColor=none;fillColor=none;" parent="1" vertex="1">
          <mxGeometry x="360.40999999999997" y="-3038" width="60" height="30" as="geometry" />
        </mxCell>
        <mxCell id="riEmUQZMA9_rJhYm_ons-28" value="&lt;span style=&quot;color: rgb(0, 127, 255); font-family: Consolas, &amp;quot;Courier New&amp;quot;, monospace; white-space-collapse: preserve; background-color: rgb(255, 255, 255);&quot;&gt;&lt;font style=&quot;font-size: 10px;&quot;&gt;Subnet-FE&lt;/font&gt;&lt;/span&gt;" style="text;html=1;align=center;verticalAlign=middle;resizable=0;points=[];autosize=1;strokeColor=none;fillColor=none;fontStyle=1" parent="1" vertex="1">
          <mxGeometry x="277.62" y="-3016.91" width="70" height="30" as="geometry" />
        </mxCell>
        <mxCell id="riEmUQZMA9_rJhYm_ons-29" style="edgeStyle=none;html=1;exitX=0;exitY=0.5;exitDx=0;exitDy=0;dashed=1;flowAnimation=1;endArrow=none;endFill=0;startArrow=classic;startFill=1;" parent="1" source="riEmUQZMA9_rJhYm_ons-30" target="riEmUQZMA9_rJhYm_ons-42" edge="1">
          <mxGeometry relative="1" as="geometry" />
        </mxCell>
        <mxCell id="YB0RbFuuZSGboLQ-tP3C-6" style="edgeStyle=none;html=1;exitX=0;exitY=0.75;exitDx=0;exitDy=0;dashed=1;entryX=0.825;entryY=0.078;entryDx=0;entryDy=0;entryPerimeter=0;flowAnimation=1;" parent="1" source="riEmUQZMA9_rJhYm_ons-30" target="YB0RbFuuZSGboLQ-tP3C-1" edge="1">
          <mxGeometry relative="1" as="geometry" />
        </mxCell>
        <mxCell id="riEmUQZMA9_rJhYm_ons-30" value="" style="whiteSpace=wrap;html=1;aspect=fixed;dashed=1;fillColor=none;strokeColor=#007FFF;strokeWidth=1;" parent="1" vertex="1">
          <mxGeometry x="265" y="-2986.91" width="100" height="100" as="geometry" />
        </mxCell>
        <mxCell id="riEmUQZMA9_rJhYm_ons-31" value="&lt;span style=&quot;color: rgb(0, 127, 255); font-family: Consolas, &amp;quot;Courier New&amp;quot;, monospace; white-space-collapse: preserve; background-color: rgb(255, 255, 255);&quot;&gt;&lt;font style=&quot;font-size: 10px;&quot;&gt;Subnet-BE&lt;/font&gt;&lt;/span&gt;" style="text;html=1;align=center;verticalAlign=middle;resizable=0;points=[];autosize=1;strokeColor=none;fillColor=none;fontStyle=1" parent="1" vertex="1">
          <mxGeometry x="280.48" y="-2877.5400000000004" width="70" height="30" as="geometry" />
        </mxCell>
        <mxCell id="riEmUQZMA9_rJhYm_ons-32" value="" style="image;aspect=fixed;html=1;points=[];align=center;fontSize=12;image=img/lib/azure2/networking/Spot_VM.svg;" parent="1" vertex="1">
          <mxGeometry x="305" y="-2959" width="20" height="18.47" as="geometry" />
        </mxCell>
        <mxCell id="riEmUQZMA9_rJhYm_ons-33" value="" style="image;aspect=fixed;html=1;points=[];align=center;fontSize=12;image=img/lib/azure2/networking/Virtual_Networks_Classic.svg;" parent="1" vertex="1">
          <mxGeometry x="340.48" y="-2897.38" width="30" height="17.91" as="geometry" />
        </mxCell>
        <mxCell id="riEmUQZMA9_rJhYm_ons-34" value="&lt;span style=&quot;color: rgb(0, 0, 0); font-family: Consolas, &amp;quot;Courier New&amp;quot;, monospace; white-space-collapse: preserve;&quot;&gt;&lt;font style=&quot;line-height: 100%;&quot;&gt;10.0.2.0/24&lt;/font&gt;&lt;/span&gt;" style="text;html=1;align=center;verticalAlign=middle;resizable=0;points=[];autosize=1;strokeColor=none;fillColor=none;fontSize=10;" parent="1" vertex="1">
          <mxGeometry x="279.09000000000003" y="-2760" width="80" height="30" as="geometry" />
        </mxCell>
        <mxCell id="riEmUQZMA9_rJhYm_ons-35" value="&lt;span style=&quot;color: rgb(63, 63, 63); font-family: Consolas, &amp;quot;Courier New&amp;quot;, monospace; font-size: 10px; white-space-collapse: preserve;&quot;&gt;10.0.1.0/24&lt;/span&gt;" style="text;html=1;align=center;verticalAlign=middle;resizable=0;points=[];autosize=1;strokeColor=none;fillColor=none;" parent="1" vertex="1">
          <mxGeometry x="275" y="-2893.18" width="80" height="30" as="geometry" />
        </mxCell>
        <mxCell id="riEmUQZMA9_rJhYm_ons-36" value="VM-BE" style="text;html=1;align=center;verticalAlign=middle;resizable=0;points=[];autosize=1;strokeColor=none;fillColor=none;fontSize=8;" parent="1" vertex="1">
          <mxGeometry x="294.99000000000007" y="-2810.62" width="50" height="20" as="geometry" />
        </mxCell>
        <mxCell id="riEmUQZMA9_rJhYm_ons-37" value="&lt;font style=&quot;font-size: 8px;&quot;&gt;VM-FE&lt;/font&gt;" style="text;html=1;align=center;verticalAlign=middle;resizable=0;points=[];autosize=1;strokeColor=none;fillColor=none;fontStyle=0" parent="1" vertex="1">
          <mxGeometry x="290" y="-2948.6299999999997" width="50" height="30" as="geometry" />
        </mxCell>
        <mxCell id="riEmUQZMA9_rJhYm_ons-38" value="" style="image;aspect=fixed;html=1;points=[];align=center;fontSize=12;image=img/lib/azure2/networking/Network_Security_Groups.svg;" parent="1" vertex="1">
          <mxGeometry x="270.48" y="-2778.21" width="15" height="18.21" as="geometry" />
        </mxCell>
        <mxCell id="riEmUQZMA9_rJhYm_ons-39" style="edgeStyle=none;html=1;exitX=0;exitY=0.5;exitDx=0;exitDy=0;dashed=1;flowAnimation=1;endArrow=none;endFill=0;startArrow=classic;startFill=1;" parent="1" source="riEmUQZMA9_rJhYm_ons-40" target="riEmUQZMA9_rJhYm_ons-42" edge="1">
          <mxGeometry relative="1" as="geometry" />
        </mxCell>
        <mxCell id="riEmUQZMA9_rJhYm_ons-40" value="" style="whiteSpace=wrap;html=1;aspect=fixed;fillColor=none;dashed=1;strokeColor=#007FFF;strokeWidth=1;" parent="1" vertex="1">
          <mxGeometry x="265.48" y="-2852.54" width="100" height="100" as="geometry" />
        </mxCell>
        <mxCell id="riEmUQZMA9_rJhYm_ons-41" value="&lt;font&gt;10.0.0.0/16&lt;/font&gt;" style="text;html=1;align=center;verticalAlign=middle;resizable=0;points=[];autosize=1;strokeColor=none;fillColor=none;fontSize=13;" parent="1" vertex="1">
          <mxGeometry x="37.90999999999997" y="-3038" width="90" height="30" as="geometry" />
        </mxCell>
        <mxCell id="riEmUQZMA9_rJhYm_ons-48" value="" style="edgeStyle=none;html=1;dashed=1;flowAnimation=1;startArrow=classic;startFill=1;endArrow=none;endFill=0;" parent="1" source="riEmUQZMA9_rJhYm_ons-42" target="riEmUQZMA9_rJhYm_ons-47" edge="1">
          <mxGeometry relative="1" as="geometry" />
        </mxCell>
        <mxCell id="riEmUQZMA9_rJhYm_ons-42" value="" style="image;aspect=fixed;html=1;points=[];align=center;fontSize=12;image=img/lib/azure2/networking/Load_Balancers.svg;" parent="1" vertex="1">
          <mxGeometry x="100" y="-2879.47" width="50" height="50" as="geometry" />
        </mxCell>
        <mxCell id="riEmUQZMA9_rJhYm_ons-43" value="" style="image;aspect=fixed;html=1;points=[];align=center;fontSize=12;image=img/lib/azure2/networking/Network_Security_Groups.svg;" parent="1" vertex="1">
          <mxGeometry x="270" y="-2910.51" width="14.27" height="17.33" as="geometry" />
        </mxCell>
        <mxCell id="riEmUQZMA9_rJhYm_ons-45" value="&lt;div&gt;Rule: Port 80&lt;/div&gt;&lt;div&gt;&lt;span style=&quot;background-color: transparent;&quot;&gt;&amp;nbsp; Probe: HTTP&amp;nbsp;&amp;nbsp;&lt;/span&gt;&lt;/div&gt;" style="text;html=1;align=center;verticalAlign=middle;resizable=0;points=[];autosize=1;strokeColor=none;fillColor=none;fontSize=10;" parent="1" vertex="1">
          <mxGeometry x="80" y="-2829.47" width="90" height="40" as="geometry" />
        </mxCell>
        <mxCell id="riEmUQZMA9_rJhYm_ons-46" value="Backend Pool" style="text;html=1;align=center;verticalAlign=middle;resizable=0;points=[];autosize=1;strokeColor=none;fillColor=none;fontStyle=1" parent="1" vertex="1">
          <mxGeometry x="265.48" y="-2719" width="100" height="30" as="geometry" />
        </mxCell>
        <mxCell id="riEmUQZMA9_rJhYm_ons-49" value="" style="edgeStyle=none;html=1;entryX=0.55;entryY=0.95;entryDx=0;entryDy=0;entryPerimeter=0;dashed=1;flowAnimation=1;startArrow=classic;startFill=1;endArrow=none;endFill=0;" parent="1" source="riEmUQZMA9_rJhYm_ons-47" target="0vhuOax-oZiGfvDgA9Jz-33" edge="1">
          <mxGeometry relative="1" as="geometry">
            <mxPoint x="89.08455018891038" y="-3081.6600000000003" as="targetPoint" />
          </mxGeometry>
        </mxCell>
        <mxCell id="riEmUQZMA9_rJhYm_ons-47" value="" style="image;aspect=fixed;html=1;points=[];align=center;fontSize=12;image=img/lib/azure2/networking/Public_IP_Addresses.svg;" parent="1" vertex="1">
          <mxGeometry x="110.08999999999999" y="-3083.85" width="29.81" height="23.85" as="geometry" />
        </mxCell>
        <mxCell id="riEmUQZMA9_rJhYm_ons-50" value="Allow: HTTP(80)" style="text;html=1;align=center;verticalAlign=middle;resizable=0;points=[];autosize=1;strokeColor=none;fillColor=none;fontSize=8;" parent="1" vertex="1">
          <mxGeometry x="280.41" y="-2921.91" width="80" height="20" as="geometry" />
        </mxCell>
        <mxCell id="riEmUQZMA9_rJhYm_ons-51" value="Deny: All inbound" style="text;html=1;align=center;verticalAlign=middle;resizable=0;points=[];autosize=1;strokeColor=none;fillColor=none;fontSize=8;" parent="1" vertex="1">
          <mxGeometry x="275.48" y="-2913.18" width="90" height="20" as="geometry" />
        </mxCell>
        <mxCell id="riEmUQZMA9_rJhYm_ons-52" value="Deny: All inbound" style="text;html=1;align=center;verticalAlign=middle;resizable=0;points=[];autosize=1;strokeColor=none;fillColor=none;fontSize=8;" parent="1" vertex="1">
          <mxGeometry x="280" y="-2780" width="90" height="20" as="geometry" />
        </mxCell>
        <mxCell id="riEmUQZMA9_rJhYm_ons-53" value="Allow: HTTP(80)" style="text;html=1;align=center;verticalAlign=middle;resizable=0;points=[];autosize=1;strokeColor=none;fillColor=none;fontSize=8;" parent="1" vertex="1">
          <mxGeometry x="285.47999999999996" y="-2789.47" width="80" height="20" as="geometry" />
        </mxCell>
        <mxCell id="riEmUQZMA9_rJhYm_ons-57" value="RG-Lab" style="text;html=1;align=center;verticalAlign=middle;resizable=0;points=[];autosize=1;strokeColor=none;fillColor=none;" parent="1" vertex="1">
          <mxGeometry x="365" y="-3072" width="70" height="30" as="geometry" />
        </mxCell>
        <mxCell id="riEmUQZMA9_rJhYm_ons-60" value="" style="whiteSpace=wrap;html=1;" parent="1" vertex="1">
          <mxGeometry x="530" y="-2990" width="210" height="310" as="geometry" />
        </mxCell>
        <mxCell id="riEmUQZMA9_rJhYm_ons-90" value="" style="image;aspect=fixed;html=1;points=[];align=center;fontSize=12;image=img/lib/azure2/networking/Public_IP_Addresses.svg;" parent="1" vertex="1">
          <mxGeometry x="547" y="-2907.54" width="25" height="20" as="geometry" />
        </mxCell>
        <mxCell id="riEmUQZMA9_rJhYm_ons-91" value="" style="image;aspect=fixed;html=1;points=[];align=center;fontSize=12;image=img/lib/azure2/networking/Virtual_Networks.svg;" parent="1" vertex="1">
          <mxGeometry x="541" y="-2807.54" width="40" height="23.88" as="geometry" />
        </mxCell>
        <mxCell id="riEmUQZMA9_rJhYm_ons-92" value="" style="image;aspect=fixed;html=1;points=[];align=center;fontSize=12;image=img/lib/azure2/networking/Virtual_Networks_Classic.svg;" parent="1" vertex="1">
          <mxGeometry x="540" y="-2777.54" width="41" height="24.48" as="geometry" />
        </mxCell>
        <mxCell id="riEmUQZMA9_rJhYm_ons-93" value="" style="image;aspect=fixed;html=1;points=[];align=center;fontSize=12;image=img/lib/azure2/networking/Load_Balancers.svg;" parent="1" vertex="1">
          <mxGeometry x="544.5" y="-2847.54" width="30" height="30" as="geometry" />
        </mxCell>
        <mxCell id="riEmUQZMA9_rJhYm_ons-94" value="" style="image;aspect=fixed;html=1;points=[];align=center;fontSize=12;image=img/lib/azure2/networking/Network_Security_Groups.svg;" parent="1" vertex="1">
          <mxGeometry x="548.02" y="-2877.54" width="20" height="24.29" as="geometry" />
        </mxCell>
        <mxCell id="riEmUQZMA9_rJhYm_ons-95" value="" style="image;aspect=fixed;html=1;points=[];align=center;fontSize=12;image=img/lib/azure2/networking/Spot_VM.svg;" parent="1" vertex="1">
          <mxGeometry x="547" y="-2944.72" width="24" height="22.17" as="geometry" />
        </mxCell>
        <mxCell id="riEmUQZMA9_rJhYm_ons-96" value="&lt;font style=&quot;font-size: 15px;&quot;&gt;☁️&lt;/font&gt; &lt;strong data-end=&quot;108&quot; data-start=&quot;96&quot;&gt;Internet&lt;/strong&gt; → External traffic" style="text;html=1;align=center;verticalAlign=middle;resizable=0;points=[];autosize=1;strokeColor=none;fillColor=none;" parent="1" vertex="1">
          <mxGeometry x="540" y="-2753.06" width="190" height="30" as="geometry" />
        </mxCell>
        <mxCell id="riEmUQZMA9_rJhYm_ons-97" value="" style="ellipse;shape=cloud;whiteSpace=wrap;html=1;fillColor=default;" parent="1" vertex="1">
          <mxGeometry x="543.02" y="-2748.06" width="30" height="20" as="geometry" />
        </mxCell>
        <mxCell id="riEmUQZMA9_rJhYm_ons-98" value=" Entry point to Azure" style="text;html=1;align=center;verticalAlign=middle;resizable=0;points=[];autosize=1;strokeColor=none;fillColor=none;" parent="1" vertex="1">
          <mxGeometry x="581" y="-2912.54" width="130" height="30" as="geometry" />
        </mxCell>
        <mxCell id="riEmUQZMA9_rJhYm_ons-99" value="Distributes traffic" style="text;html=1;align=center;verticalAlign=middle;resizable=0;points=[];autosize=1;strokeColor=none;fillColor=none;" parent="1" vertex="1">
          <mxGeometry x="583.02" y="-2847.54" width="110" height="30" as="geometry" />
        </mxCell>
        <mxCell id="riEmUQZMA9_rJhYm_ons-100" value="&lt;b&gt;Backend Pool&lt;/b&gt;" style="text;html=1;align=center;verticalAlign=middle;resizable=0;points=[];autosize=1;strokeColor=none;fillColor=none;" parent="1" vertex="1">
          <mxGeometry x="540" y="-2717.54" width="100" height="30" as="geometry" />
        </mxCell>
        <mxCell id="riEmUQZMA9_rJhYm_ons-101" value="Target VMs" style="text;html=1;align=center;verticalAlign=middle;resizable=0;points=[];autosize=1;strokeColor=none;fillColor=none;" parent="1" vertex="1">
          <mxGeometry x="640" y="-2717.54" width="80" height="30" as="geometry" />
        </mxCell>
        <mxCell id="riEmUQZMA9_rJhYm_ons-102" value="&lt;span style=&quot;color: rgb(0, 0, 0);&quot;&gt;→&amp;nbsp;&lt;/span&gt;" style="text;html=1;align=center;verticalAlign=middle;resizable=0;points=[];autosize=1;strokeColor=none;fillColor=none;" parent="1" vertex="1">
          <mxGeometry x="561" y="-2912.54" width="40" height="30" as="geometry" />
        </mxCell>
        <mxCell id="riEmUQZMA9_rJhYm_ons-103" value="&lt;span style=&quot;color: rgb(0, 0, 0);&quot;&gt;→&amp;nbsp;&lt;/span&gt;" style="text;html=1;align=center;verticalAlign=middle;resizable=0;points=[];autosize=1;strokeColor=none;fillColor=none;" parent="1" vertex="1">
          <mxGeometry x="618.02" y="-2717.54" width="40" height="30" as="geometry" />
        </mxCell>
        <mxCell id="riEmUQZMA9_rJhYm_ons-104" value="&lt;span style=&quot;color: rgb(0, 0, 0);&quot;&gt;→&amp;nbsp;&lt;/span&gt;" style="text;html=1;align=center;verticalAlign=middle;resizable=0;points=[];autosize=1;strokeColor=none;fillColor=none;" parent="1" vertex="1">
          <mxGeometry x="561" y="-2847.54" width="40" height="30" as="geometry" />
        </mxCell>
        <mxCell id="riEmUQZMA9_rJhYm_ons-105" value="&lt;span style=&quot;color: rgb(0, 0, 0);&quot;&gt;→&amp;nbsp;&lt;/span&gt;" style="text;html=1;align=center;verticalAlign=middle;resizable=0;points=[];autosize=1;strokeColor=none;fillColor=none;" parent="1" vertex="1">
          <mxGeometry x="561" y="-2952.55" width="40" height="30" as="geometry" />
        </mxCell>
        <mxCell id="riEmUQZMA9_rJhYm_ons-106" value="&lt;span style=&quot;color: rgb(0, 0, 0);&quot;&gt;→&amp;nbsp;&lt;/span&gt;" style="text;html=1;align=center;verticalAlign=middle;resizable=0;points=[];autosize=1;strokeColor=none;fillColor=none;" parent="1" vertex="1">
          <mxGeometry x="561" y="-2882.54" width="40" height="30" as="geometry" />
        </mxCell>
        <mxCell id="riEmUQZMA9_rJhYm_ons-107" value="&lt;span style=&quot;color: rgb(0, 0, 0);&quot;&gt;→&amp;nbsp;&lt;/span&gt;" style="text;html=1;align=center;verticalAlign=middle;resizable=0;points=[];autosize=1;strokeColor=none;fillColor=none;" parent="1" vertex="1">
          <mxGeometry x="570" y="-2810.6" width="40" height="30" as="geometry" />
        </mxCell>
        <mxCell id="riEmUQZMA9_rJhYm_ons-108" value="&lt;span style=&quot;color: rgb(0, 0, 0);&quot;&gt;→&amp;nbsp;&lt;/span&gt;" style="text;html=1;align=center;verticalAlign=middle;resizable=0;points=[];autosize=1;strokeColor=none;fillColor=none;" parent="1" vertex="1">
          <mxGeometry x="575.04" y="-2783.06" width="40" height="30" as="geometry" />
        </mxCell>
        <mxCell id="riEmUQZMA9_rJhYm_ons-109" value=" Security rules" style="text;html=1;align=center;verticalAlign=middle;resizable=0;points=[];autosize=1;strokeColor=none;fillColor=none;" parent="1" vertex="1">
          <mxGeometry x="581" y="-2882.54" width="100" height="30" as="geometry" />
        </mxCell>
        <mxCell id="riEmUQZMA9_rJhYm_ons-110" value="Virtual Network" style="text;html=1;align=center;verticalAlign=middle;resizable=0;points=[];autosize=1;strokeColor=none;fillColor=none;" parent="1" vertex="1">
          <mxGeometry x="595" y="-2813.06" width="100" height="30" as="geometry" />
        </mxCell>
        <mxCell id="riEmUQZMA9_rJhYm_ons-111" value="Subnets" style="text;html=1;align=center;verticalAlign=middle;resizable=0;points=[];autosize=1;strokeColor=none;fillColor=none;" parent="1" vertex="1">
          <mxGeometry x="595" y="-2783.06" width="70" height="30" as="geometry" />
        </mxCell>
        <mxCell id="riEmUQZMA9_rJhYm_ons-112" value="Virtual Machines" style="text;html=1;align=center;verticalAlign=middle;resizable=0;points=[];autosize=1;strokeColor=none;fillColor=none;" parent="1" vertex="1">
          <mxGeometry x="583.02" y="-2952.55" width="110" height="30" as="geometry" />
        </mxCell>
        <mxCell id="riEmUQZMA9_rJhYm_ons-113" value="&lt;font style=&quot;font-size: 14px;&quot;&gt;Legend&lt;/font&gt;" style="text;html=1;align=center;verticalAlign=middle;resizable=0;points=[];autosize=1;strokeColor=none;fillColor=none;fontStyle=1" parent="1" vertex="1">
          <mxGeometry x="531" y="-3030" width="70" height="30" as="geometry" />
        </mxCell>
        <mxCell id="YB0RbFuuZSGboLQ-tP3C-5" style="edgeStyle=none;html=1;dashed=1;flowAnimation=1;" parent="1" source="YB0RbFuuZSGboLQ-tP3C-1" target="YB0RbFuuZSGboLQ-tP3C-4" edge="1">
          <mxGeometry relative="1" as="geometry" />
        </mxCell>
        <mxCell id="YB0RbFuuZSGboLQ-tP3C-1" value="" style="image;aspect=fixed;html=1;points=[];align=center;fontSize=12;image=img/lib/azure2/networking/NAT.svg;" parent="1" vertex="1">
          <mxGeometry x="195.85" y="-2887.54" width="38.96" height="38.96" as="geometry" />
        </mxCell>
        <mxCell id="YB0RbFuuZSGboLQ-tP3C-11" value="" style="edgeStyle=none;html=1;dashed=1;flowAnimation=1;entryX=0.55;entryY=0.95;entryDx=0;entryDy=0;entryPerimeter=0;" parent="1" source="YB0RbFuuZSGboLQ-tP3C-4" target="0vhuOax-oZiGfvDgA9Jz-33" edge="1">
          <mxGeometry relative="1" as="geometry" />
        </mxCell>
        <mxCell id="YB0RbFuuZSGboLQ-tP3C-4" value="" style="image;aspect=fixed;html=1;points=[];align=center;fontSize=12;image=img/lib/azure2/networking/Public_IP_Addresses.svg;" parent="1" vertex="1">
          <mxGeometry x="205" y="-3083.85" width="29.81" height="23.85" as="geometry" />
        </mxCell>
        <mxCell id="YB0RbFuuZSGboLQ-tP3C-7" style="edgeStyle=none;html=1;dashed=1;flowAnimation=1;entryX=0.92;entryY=0.727;entryDx=0;entryDy=0;entryPerimeter=0;" parent="1" source="riEmUQZMA9_rJhYm_ons-40" target="YB0RbFuuZSGboLQ-tP3C-1" edge="1">
          <mxGeometry relative="1" as="geometry" />
        </mxCell>
        <mxCell id="YB0RbFuuZSGboLQ-tP3C-8" value="" style="image;aspect=fixed;html=1;points=[];align=center;fontSize=12;image=img/lib/azure2/networking/NAT.svg;" parent="1" vertex="1">
          <mxGeometry x="548.02" y="-2979" width="21.98" height="21.98" as="geometry" />
        </mxCell>
        <mxCell id="YB0RbFuuZSGboLQ-tP3C-9" value="Outbound access" style="text;html=1;align=center;verticalAlign=middle;resizable=0;points=[];autosize=1;strokeColor=none;fillColor=none;" parent="1" vertex="1">
          <mxGeometry x="581" y="-2981.91" width="120" height="30" as="geometry" />
        </mxCell>
        <mxCell id="YB0RbFuuZSGboLQ-tP3C-10" value="&lt;span style=&quot;color: rgb(0, 0, 0);&quot;&gt;→&amp;nbsp;&lt;/span&gt;" style="text;html=1;align=center;verticalAlign=middle;resizable=0;points=[];autosize=1;strokeColor=none;fillColor=none;" parent="1" vertex="1">
          <mxGeometry x="561" y="-2983.01" width="40" height="30" as="geometry" />
        </mxCell>
      </root>
    </mxGraphModel>
  </diagram>
</mxfile>
